<?xml version="1.0" encoding="utf-8"?>
<!-- Generator: Adobe Illustrator 26.2.1, SVG Export Plug-In . SVG Version: 6.00 Build 0)  -->
<svg version="1.1" id="Ebene_1" xmlns="http://www.w3.org/2000/svg" xmlns:xlink="http://www.w3.org/1999/xlink" x="0px" y="0px"
	 viewBox="0 0 40 40" style="enable-background:new 0 0 40 40;" xml:space="preserve">
<style type="text/css">
	.st0{opacity:0.5;}
	.st1{fill:none;stroke:#FFFFFF;stroke-width:2;stroke-linecap:round;stroke-linejoin:round;}
</style>
<g class="st0">
	<path class="st1" d="M26,30.1h10.2l-2.9-2.9c-0.4-0.4-0.7-0.8-0.9-1.3c-0.2-0.5-0.3-1-0.3-1.6v-6.4c0-2.5-0.8-5-2.2-7
		c-1.5-2.1-3.5-3.6-5.9-4.5V5.7c0-1.1-0.4-2.1-1.2-2.9C22,2.1,21,1.7,19.9,1.7c-1.1,0-2.1,0.4-2.9,1.2c-0.8,0.8-1.2,1.8-1.2,2.9v0.7
		c-4.7,1.7-8.1,6.2-8.1,11.5v6.4c0,1.1-0.4,2.1-1.2,2.9l-2.9,2.9h10.2 M26,30.1H13.8 M26,30.1v2c0,1.6-0.6,3.2-1.8,4.3
		c-1.1,1.1-2.7,1.8-4.3,1.8c-1.6,0-3.2-0.6-4.3-1.8c-1.1-1.1-1.8-2.7-1.8-4.3v-2"/>
</g>
</svg>
