<svg width="40" height="40" viewBox="0 0 40 40" fill="none" xmlns="http://www.w3.org/2000/svg">
<g opacity="0.5">
<path d="M23 25H28L26.595 23.595C26.4063 23.4063 26.2567 23.1822 26.1546 22.9357C26.0525 22.6891 26 22.4249 26 22.158V19C26.0002 17.7589 25.6156 16.5483 24.8992 15.5349C24.1829 14.5214 23.17 13.755 22 13.341V13C22 12.4696 21.7893 11.9609 21.4142 11.5858C21.0391 11.2107 20.5304 11 20 11C19.4696 11 18.9609 11.2107 18.5858 11.5858C18.2107 11.9609 18 12.4696 18 13V13.341C15.67 14.165 14 16.388 14 19V22.159C14 22.697 13.786 23.214 13.405 23.595L12 25H17M23 25H17M23 25V26C23 26.7956 22.6839 27.5587 22.1213 28.1213C21.5587 28.6839 20.7956 29 20 29C19.2044 29 18.4413 28.6839 17.8787 28.1213C17.3161 27.5587 17 26.7956 17 26V25" stroke="white" stroke-width="2" stroke-linecap="round" stroke-linejoin="round"/>
</g>
</svg>
