<svg width="40" height="40" viewBox="0 0 40 40" fill="none" xmlns="http://www.w3.org/2000/svg">
<rect width="40" height="40" rx="20" fill="#323436"/>
<path d="M19.8291 26.3789C20.6289 26.3789 21.2988 26.2559 21.9619 26.0166L21.4971 24.7725C20.9775 24.9365 20.4785 25.0391 19.8428 25.0391C17.2109 25.0391 14.9893 23.3438 14.9893 20.418C14.9893 17.6836 16.9307 15.4893 19.959 15.4893C23.0078 15.4893 24.8193 17.7451 24.8193 20.2471C24.8193 21.5938 24.2998 23.1592 22.8984 23.1592C22.3926 23.1592 22.2559 22.9609 22.2559 22.3867C22.2559 21.0469 22.9941 18.6543 23.2881 17.082H21.9482L21.8184 17.6699C21.4971 17.1367 20.8955 16.7471 20.041 16.7471C17.9287 16.7471 16.7256 19.126 16.7256 20.9648C16.7256 22.4072 17.4639 23.7061 19.0225 23.7061C19.7197 23.7061 20.4512 23.4395 21.0254 22.9062C21.0527 23.1592 21.1074 23.3711 21.1895 23.5693C21.4697 24.1709 22.0576 24.5195 22.9395 24.5195C25.0928 24.5195 26.1182 22.3867 26.1182 20.2744C26.1182 17.0547 23.7666 14.2109 19.9453 14.2109C16.1924 14.2109 13.6836 16.9727 13.6836 20.4453C13.6836 24.0957 16.459 26.3789 19.8291 26.3789ZM19.1318 22.373C18.332 22.373 17.9834 21.874 17.9834 21.0195C17.9834 19.7275 18.7695 18.0801 20.2393 18.0801C21.0527 18.0801 21.374 18.5791 21.374 19.4062C21.374 20.7119 20.5879 22.373 19.1318 22.373Z" fill="white"/>
</svg>
