<svg width="32" height="32" viewBox="0 0 32 32" fill="none" xmlns="http://www.w3.org/2000/svg">
<rect x="0.5" y="0.5" width="31" height="31" rx="15.5" fill="black"/>
<path d="M8.5 12.6667L15.075 17.05C15.3489 17.2327 15.6708 17.3302 16 17.3302C16.3292 17.3302 16.6511 17.2327 16.925 17.05L23.5 12.6667M10.1667 21.8333H21.8333C22.2754 21.8333 22.6993 21.6577 23.0118 21.3452C23.3244 21.0326 23.5 20.6087 23.5 20.1667V11.8333C23.5 11.3913 23.3244 10.9674 23.0118 10.6548C22.6993 10.3423 22.2754 10.1667 21.8333 10.1667H10.1667C9.72464 10.1667 9.30072 10.3423 8.98816 10.6548C8.67559 10.9674 8.5 11.3913 8.5 11.8333V20.1667C8.5 20.6087 8.67559 21.0326 8.98816 21.3452C9.30072 21.6577 9.72464 21.8333 10.1667 21.8333Z" stroke="#ECEBED" stroke-width="1.4" stroke-linecap="round" stroke-linejoin="round"/>
<circle cx="23" cy="10" r="3" fill="#F72E8E" stroke="white" stroke-width="1.2"/>
<rect x="0.5" y="0.5" width="31" height="31" rx="15.5" stroke="#727477"/>
</svg>
