<svg width="40" height="40" viewBox="0 0 40 40" fill="none" xmlns="http://www.w3.org/2000/svg">
<rect width="40" height="40" rx="20" fill="#323436"/>
<path d="M20.0059 24.1094C21.8516 24.1094 23.3623 23.0088 23.3623 21.1836C23.3623 17.9775 18.6865 18.5928 18.6865 16.7744C18.6865 16.1592 19.2197 15.7422 19.9033 15.7422C20.5527 15.7422 21.127 16.1182 21.4619 16.7744L22.9043 15.8926C22.2412 14.7168 21.1543 14.1973 19.9648 14.1973C18.3379 14.1973 16.9502 15.1543 16.9502 16.8633C16.9502 20.0078 21.626 19.3379 21.626 21.3408C21.626 22.0244 21.0654 22.5713 20.0332 22.5713C19.0078 22.5713 18.1533 22.0381 18.0303 20.835L16.3076 21.2725C16.6152 23.1729 18.2969 24.1094 20.0059 24.1094Z" fill="#2E8AF7"/>
</svg>
