<svg width="40" height="40" viewBox="0 0 40 40" fill="none" xmlns="http://www.w3.org/2000/svg">
<rect width="40" height="40" rx="20" fill="#323436"/>
<path d="M21.3333 18.6667H24.5093C24.7366 18.6667 24.96 18.7248 25.1585 18.8354C25.357 18.9461 25.5239 19.1056 25.6434 19.2989C25.7629 19.4922 25.831 19.7128 25.8413 19.9398C25.8515 20.1669 25.8036 20.3927 25.702 20.596L23.3687 25.2627C23.2579 25.4843 23.0876 25.6707 22.8768 25.8009C22.666 25.9312 22.4231 26.0001 22.1753 26H19.4973C19.3887 26 19.28 25.9867 19.174 25.96L16.6667 25.3333M21.3333 18.6667V15.3333C21.3333 14.9797 21.1929 14.6406 20.9428 14.3905C20.6928 14.1405 20.3536 14 20 14H19.9367C19.6033 14 19.3333 14.27 19.3333 14.6033C19.3333 15.0793 19.1927 15.5447 18.928 15.9407L16.6667 19.3333V25.3333M21.3333 18.6667H20M16.6667 25.3333H15.3333C14.9797 25.3333 14.6406 25.1929 14.3905 24.9428C14.1405 24.6928 14 24.3536 14 24V20C14 19.6464 14.1405 19.3072 14.3905 19.0572C14.6406 18.8071 14.9797 18.6667 15.3333 18.6667H17" stroke="#2E8AF7" stroke-width="1.4" stroke-linecap="round" stroke-linejoin="round"/>
</svg>
